<mxfile host="app.diagrams.net" modified="2023-02-10T22:59:59.640Z" agent="5.0 (Windows NT 10.0; Win64; x64) AppleWebKit/537.36 (KHTML, like Gecko) Chrome/110.0.0.0 Safari/537.36" etag="kkbJEbWVAf1uRk-B7INj" version="20.8.15" type="github">
  <diagram name="PÃ¡gina-1" id="xJE2bCt4W-XBajtunEXg">
    <mxGraphModel dx="3088" dy="1957" grid="1" gridSize="10" guides="1" tooltips="1" connect="1" arrows="1" fold="1" page="1" pageScale="1" pageWidth="827" pageHeight="1169" math="0" shadow="0">
      <root>
        <mxCell id="0" />
        <mxCell id="1" parent="0" />
        <mxCell id="l5oiDggihOvrZf2QDHFY-1" value="Horizontal Container" style="swimlane;horizontal=0;whiteSpace=wrap;html=1;" vertex="1" parent="1">
          <mxGeometry x="-950" y="-20" width="2410" height="200" as="geometry" />
        </mxCell>
        <mxCell id="l5oiDggihOvrZf2QDHFY-2" style="edgeStyle=orthogonalEdgeStyle;rounded=0;orthogonalLoop=1;jettySize=auto;html=1;entryX=0;entryY=0.5;entryDx=0;entryDy=0;entryPerimeter=0;" edge="1" parent="l5oiDggihOvrZf2QDHFY-1" source="l5oiDggihOvrZf2QDHFY-3" target="l5oiDggihOvrZf2QDHFY-5">
          <mxGeometry relative="1" as="geometry" />
        </mxCell>
        <object placeholders="1" c4Type="life-public-journey-ms" c4Container="" c4Technology="net Core " c4Description="" label="&lt;font style=&quot;font-size: 16px&quot;&gt;&lt;b&gt;%c4Type%&lt;/font&gt;&lt;div&gt;[%c4Container%:&amp;nbsp;%c4Technology%]&lt;/div&gt;&lt;br&gt;&lt;div&gt;&lt;font style=&quot;font-size: 11px&quot;&gt;&lt;font color=&quot;#E6E6E6&quot;&gt;%c4Description%&lt;/font&gt;&lt;/div&gt;" id="l5oiDggihOvrZf2QDHFY-3">
          <mxCell style="shape=hexagon;size=50;perimeter=hexagonPerimeter2;whiteSpace=wrap;html=1;fixedSize=1;rounded=1;labelBackgroundColor=none;fillColor=#FFB570;fontSize=12;fontColor=#5C5C5C;align=center;strokeColor=#006658;metaEdit=1;points=[[0.5,0,0],[1,0.25,0],[1,0.5,0],[1,0.75,0],[0.5,1,0],[0,0.75,0],[0,0.5,0],[0,0.25,0]];resizable=0;arcSize=5;fillStyle=auto;rotation=0;" vertex="1" parent="l5oiDggihOvrZf2QDHFY-1">
            <mxGeometry x="70" y="20" width="200" height="170" as="geometry" />
          </mxCell>
        </object>
        <mxCell id="l5oiDggihOvrZf2QDHFY-4" style="edgeStyle=orthogonalEdgeStyle;rounded=0;orthogonalLoop=1;jettySize=auto;html=1;entryX=0;entryY=0.5;entryDx=0;entryDy=0;entryPerimeter=0;" edge="1" parent="l5oiDggihOvrZf2QDHFY-1" source="l5oiDggihOvrZf2QDHFY-5" target="l5oiDggihOvrZf2QDHFY-7">
          <mxGeometry relative="1" as="geometry" />
        </mxCell>
        <object placeholders="1" c4Type="life-pricing-journey-ms" c4Container="" c4Technology="net Core " c4Description="" label="&lt;font style=&quot;font-size: 16px&quot;&gt;&lt;b&gt;%c4Type%&lt;/font&gt;&lt;div&gt;[%c4Container%:&amp;nbsp;%c4Technology%]&lt;/div&gt;&lt;br&gt;&lt;div&gt;&lt;font style=&quot;font-size: 11px&quot;&gt;&lt;font color=&quot;#E6E6E6&quot;&gt;%c4Description%&lt;/font&gt;&lt;/div&gt;" id="l5oiDggihOvrZf2QDHFY-5">
          <mxCell style="shape=hexagon;size=50;perimeter=hexagonPerimeter2;whiteSpace=wrap;html=1;fixedSize=1;rounded=1;labelBackgroundColor=none;fillColor=#FFB570;fontSize=12;fontColor=#5C5C5C;align=center;strokeColor=#006658;metaEdit=1;points=[[0.5,0,0],[1,0.25,0],[1,0.5,0],[1,0.75,0],[0.5,1,0],[0,0.75,0],[0,0.5,0],[0,0.25,0]];resizable=0;arcSize=5;fillStyle=auto;rotation=0;" vertex="1" parent="l5oiDggihOvrZf2QDHFY-1">
            <mxGeometry x="430" y="20" width="200" height="170" as="geometry" />
          </mxCell>
        </object>
        <mxCell id="l5oiDggihOvrZf2QDHFY-6" style="edgeStyle=orthogonalEdgeStyle;rounded=0;orthogonalLoop=1;jettySize=auto;html=1;entryX=0;entryY=0.5;entryDx=0;entryDy=0;" edge="1" parent="l5oiDggihOvrZf2QDHFY-1" source="l5oiDggihOvrZf2QDHFY-7" target="l5oiDggihOvrZf2QDHFY-8">
          <mxGeometry relative="1" as="geometry" />
        </mxCell>
        <object placeholders="1" c4Type="life-pricing-tx-ms" c4Container="" c4Technology="net Core " c4Description="" label="&lt;font style=&quot;font-size: 16px&quot;&gt;&lt;b&gt;%c4Type%&lt;/font&gt;&lt;div&gt;[%c4Container%:&amp;nbsp;%c4Technology%]&lt;/div&gt;&lt;br&gt;&lt;div&gt;&lt;font style=&quot;font-size: 11px&quot;&gt;&lt;font color=&quot;#E6E6E6&quot;&gt;%c4Description%&lt;/font&gt;&lt;/div&gt;" id="l5oiDggihOvrZf2QDHFY-7">
          <mxCell style="shape=hexagon;size=50;perimeter=hexagonPerimeter2;whiteSpace=wrap;html=1;fixedSize=1;rounded=1;labelBackgroundColor=none;fillColor=#FFB570;fontSize=12;fontColor=#5C5C5C;align=center;strokeColor=#006658;metaEdit=1;points=[[0.5,0,0],[1,0.25,0],[1,0.5,0],[1,0.75,0],[0.5,1,0],[0,0.75,0],[0,0.5,0],[0,0.25,0]];resizable=0;arcSize=5;fillStyle=auto;rotation=0;" vertex="1" parent="l5oiDggihOvrZf2QDHFY-1">
            <mxGeometry x="840" y="20" width="200" height="170" as="geometry" />
          </mxCell>
        </object>
        <mxCell id="l5oiDggihOvrZf2QDHFY-8" value="Crea Pricing" style="rounded=1;whiteSpace=wrap;html=1;fillColor=#dae8fc;strokeColor=#6c8ebf;" vertex="1" parent="l5oiDggihOvrZf2QDHFY-1">
          <mxGeometry x="1270" y="67.5" width="160" height="75" as="geometry" />
        </mxCell>
        <mxCell id="l5oiDggihOvrZf2QDHFY-9" value="Mande un mensaje a un topico con el pricing Id&amp;nbsp; &amp;nbsp;" style="shape=process;whiteSpace=wrap;html=1;backgroundOutline=1;fillColor=#bac8d3;strokeColor=#23445d;" vertex="1" parent="l5oiDggihOvrZf2QDHFY-1">
          <mxGeometry x="1580" y="67.5" width="180" height="75" as="geometry" />
        </mxCell>
        <mxCell id="l5oiDggihOvrZf2QDHFY-10" style="edgeStyle=orthogonalEdgeStyle;rounded=0;orthogonalLoop=1;jettySize=auto;html=1;entryX=0;entryY=0.5;entryDx=0;entryDy=0;" edge="1" parent="l5oiDggihOvrZf2QDHFY-1" source="l5oiDggihOvrZf2QDHFY-8" target="l5oiDggihOvrZf2QDHFY-9">
          <mxGeometry relative="1" as="geometry">
            <mxPoint x="1590" y="110" as="targetPoint" />
          </mxGeometry>
        </mxCell>
        <mxCell id="l5oiDggihOvrZf2QDHFY-11" style="edgeStyle=orthogonalEdgeStyle;rounded=0;orthogonalLoop=1;jettySize=auto;html=1;entryX=0.5;entryY=1;entryDx=0;entryDy=0;" edge="1" parent="1" source="l5oiDggihOvrZf2QDHFY-14" target="l5oiDggihOvrZf2QDHFY-9">
          <mxGeometry relative="1" as="geometry" />
        </mxCell>
        <mxCell id="l5oiDggihOvrZf2QDHFY-12" value="&lt;font style=&quot;font-size: 21px;&quot;&gt;suscripto&lt;/font&gt;" style="edgeLabel;html=1;align=center;verticalAlign=middle;resizable=0;points=[];fontSize=21;" vertex="1" connectable="0" parent="l5oiDggihOvrZf2QDHFY-11">
          <mxGeometry x="-0.047" y="-1" relative="1" as="geometry">
            <mxPoint as="offset" />
          </mxGeometry>
        </mxCell>
        <mxCell id="l5oiDggihOvrZf2QDHFY-13" style="edgeStyle=orthogonalEdgeStyle;rounded=0;orthogonalLoop=1;jettySize=auto;html=1;fontSize=21;entryX=0.5;entryY=0;entryDx=0;entryDy=0;" edge="1" parent="1" source="l5oiDggihOvrZf2QDHFY-14" target="l5oiDggihOvrZf2QDHFY-20">
          <mxGeometry relative="1" as="geometry">
            <mxPoint x="370" y="700" as="targetPoint" />
          </mxGeometry>
        </mxCell>
        <object placeholders="1" c4Type="life-signup-tx-ms" c4Container="" c4Technology="net Core " c4Description="" label="&lt;font style=&quot;font-size: 16px&quot;&gt;&lt;b&gt;%c4Type%&lt;/font&gt;&lt;div&gt;[%c4Container%:&amp;nbsp;%c4Technology%]&lt;/div&gt;&lt;br&gt;&lt;div&gt;&lt;font style=&quot;font-size: 11px&quot;&gt;&lt;font color=&quot;#E6E6E6&quot;&gt;%c4Description%&lt;/font&gt;&lt;/div&gt;" id="l5oiDggihOvrZf2QDHFY-14">
          <mxCell style="shape=hexagon;size=50;perimeter=hexagonPerimeter2;whiteSpace=wrap;html=1;fixedSize=1;rounded=1;labelBackgroundColor=none;fontSize=12;align=center;metaEdit=1;points=[[0.5,0,0],[1,0.25,0],[1,0.5,0],[1,0.75,0],[0.5,1,0],[0,0.75,0],[0,0.5,0],[0,0.25,0]];resizable=0;arcSize=5;fillStyle=auto;rotation=0;fillColor=#f8cecc;strokeColor=#b85450;" vertex="1" parent="1">
            <mxGeometry x="270" y="370" width="200" height="170" as="geometry" />
          </mxCell>
        </object>
        <mxCell id="l5oiDggihOvrZf2QDHFY-15" value="Guarda Pricing Generados" style="rounded=1;whiteSpace=wrap;html=1;fillColor=#dae8fc;strokeColor=#6c8ebf;" vertex="1" parent="1">
          <mxGeometry x="270" y="1110" width="200" height="126" as="geometry" />
        </mxCell>
        <mxCell id="l5oiDggihOvrZf2QDHFY-16" style="edgeStyle=orthogonalEdgeStyle;rounded=0;orthogonalLoop=1;jettySize=auto;html=1;entryX=0.5;entryY=0;entryDx=0;entryDy=0;fontSize=21;" edge="1" parent="1" source="l5oiDggihOvrZf2QDHFY-20" target="l5oiDggihOvrZf2QDHFY-15">
          <mxGeometry relative="1" as="geometry" />
        </mxCell>
        <mxCell id="l5oiDggihOvrZf2QDHFY-17" value="Si" style="edgeLabel;html=1;align=center;verticalAlign=middle;resizable=0;points=[];fontSize=21;" vertex="1" connectable="0" parent="l5oiDggihOvrZf2QDHFY-16">
          <mxGeometry x="0.3238" y="3" relative="1" as="geometry">
            <mxPoint as="offset" />
          </mxGeometry>
        </mxCell>
        <mxCell id="l5oiDggihOvrZf2QDHFY-18" style="edgeStyle=orthogonalEdgeStyle;rounded=0;orthogonalLoop=1;jettySize=auto;html=1;fontSize=21;entryX=0;entryY=0.5;entryDx=0;entryDy=0;" edge="1" parent="1" source="l5oiDggihOvrZf2QDHFY-20" target="l5oiDggihOvrZf2QDHFY-26">
          <mxGeometry relative="1" as="geometry">
            <mxPoint x="680" y="790" as="targetPoint" />
          </mxGeometry>
        </mxCell>
        <mxCell id="l5oiDggihOvrZf2QDHFY-19" value="No" style="edgeLabel;html=1;align=center;verticalAlign=middle;resizable=0;points=[];fontSize=21;" vertex="1" connectable="0" parent="l5oiDggihOvrZf2QDHFY-18">
          <mxGeometry x="-0.3523" y="1" relative="1" as="geometry">
            <mxPoint as="offset" />
          </mxGeometry>
        </mxCell>
        <mxCell id="l5oiDggihOvrZf2QDHFY-20" value="&amp;nbsp;Existe en Db" style="rhombus;whiteSpace=wrap;html=1;fontSize=21;fillColor=#fff2cc;gradientColor=#ffd966;strokeColor=#d6b656;" vertex="1" parent="1">
          <mxGeometry x="282.5" y="700" width="175" height="180" as="geometry" />
        </mxCell>
        <mxCell id="l5oiDggihOvrZf2QDHFY-21" value="Exception" style="rounded=1;whiteSpace=wrap;html=1;fillColor=#fad9d5;strokeColor=#ae4132;" vertex="1" parent="1">
          <mxGeometry x="1270" y="743.5" width="120" height="93" as="geometry" />
        </mxCell>
        <mxCell id="l5oiDggihOvrZf2QDHFY-22" style="edgeStyle=orthogonalEdgeStyle;rounded=0;orthogonalLoop=1;jettySize=auto;html=1;entryX=1;entryY=0.5;entryDx=0;entryDy=0;fontSize=21;" edge="1" parent="1" source="l5oiDggihOvrZf2QDHFY-26" target="l5oiDggihOvrZf2QDHFY-15">
          <mxGeometry relative="1" as="geometry">
            <Array as="points">
              <mxPoint x="847" y="1173" />
            </Array>
          </mxGeometry>
        </mxCell>
        <mxCell id="l5oiDggihOvrZf2QDHFY-23" value="Si" style="edgeLabel;html=1;align=center;verticalAlign=middle;resizable=0;points=[];fontSize=21;" vertex="1" connectable="0" parent="l5oiDggihOvrZf2QDHFY-22">
          <mxGeometry x="0.0912" relative="1" as="geometry">
            <mxPoint as="offset" />
          </mxGeometry>
        </mxCell>
        <mxCell id="l5oiDggihOvrZf2QDHFY-24" style="edgeStyle=orthogonalEdgeStyle;rounded=0;orthogonalLoop=1;jettySize=auto;html=1;fontSize=21;entryX=0;entryY=0.5;entryDx=0;entryDy=0;" edge="1" parent="1" source="l5oiDggihOvrZf2QDHFY-26" target="l5oiDggihOvrZf2QDHFY-21">
          <mxGeometry relative="1" as="geometry">
            <mxPoint x="1160" y="790" as="targetPoint" />
          </mxGeometry>
        </mxCell>
        <mxCell id="l5oiDggihOvrZf2QDHFY-25" value="No" style="edgeLabel;html=1;align=center;verticalAlign=middle;resizable=0;points=[];fontSize=21;" vertex="1" connectable="0" parent="l5oiDggihOvrZf2QDHFY-24">
          <mxGeometry x="-0.1382" relative="1" as="geometry">
            <mxPoint as="offset" />
          </mxGeometry>
        </mxCell>
        <mxCell id="l5oiDggihOvrZf2QDHFY-26" value="Existe en &lt;br&gt;el Get" style="rhombus;whiteSpace=wrap;html=1;fontSize=21;fillColor=#fff2cc;gradientColor=#ffd966;strokeColor=#d6b656;" vertex="1" parent="1">
          <mxGeometry x="760" y="700" width="175" height="180" as="geometry" />
        </mxCell>
      </root>
    </mxGraphModel>
  </diagram>
</mxfile>
